<?xml version="1.0" standalone="no"?>
<!DOCTYPE svg PUBLIC "-//W3C//DTD SVG 20010904//EN"
 "http://www.w3.org/TR/2001/REC-SVG-20010904/DTD/svg10.dtd">
<svg version="1.0" xmlns="http://www.w3.org/2000/svg"
 width="1080.000000pt" height="1080.000000pt" viewBox="0 0 1080.000000 1080.000000"
 preserveAspectRatio="xMidYMid meet">

<g transform="translate(0.000000,1080.000000) scale(0.100000,-0.100000)"
fill="#000000" stroke="none">
<path d="M5660 9830 c-115 -20 -199 -84 -255 -195 -39 -76 -40 -80 -40 -184 0
-90 3 -112 22 -147 50 -94 166 -120 257 -59 20 14 39 25 41 25 4 0 -51 -205
-66 -245 -19 -47 -59 -85 -91 -85 -38 0 -68 32 -68 73 0 47 30 72 88 72 51 0
61 12 35 44 -25 30 -90 38 -132 16 -42 -21 -76 -92 -67 -141 7 -36 52 -85 88
-96 40 -11 118 -8 151 6 18 7 47 30 65 51 51 57 71 108 138 355 8 30 21 75 28
100 18 60 12 70 -40 70 l-43 0 -37 -76 c-66 -135 -158 -169 -214 -79 -50 81
-2 281 92 385 49 53 79 70 128 70 75 0 101 -50 64 -121 -19 -37 -6 -59 36 -59
41 0 65 33 65 90 0 40 -5 54 -29 79 -44 46 -130 66 -216 51z"/>
<path d="M6055 9516 c-85 -39 -158 -142 -190 -269 -17 -67 -17 -68 7 -115 20
-41 29 -49 71 -61 53 -16 95 -8 150 31 27 19 27 19 27 -1 0 -11 12 -35 28 -52
26 -29 32 -31 118 -35 l91 -4 82 140 c80 135 110 172 152 185 25 8 49 -11 49
-38 0 -11 -41 -87 -90 -170 -50 -83 -89 -155 -87 -160 4 -12 99 -48 113 -43 6
2 46 64 89 138 109 184 149 221 200 185 16 -12 17 -18 6 -48 -6 -19 -36 -74
-65 -124 -62 -105 -71 -134 -55 -182 8 -26 21 -40 53 -54 22 -10 53 -19 67
-19 17 0 40 -14 66 -39 47 -47 133 -77 197 -67 61 10 146 46 146 63 0 10 -6
13 -17 9 -42 -17 -108 -26 -139 -20 -73 14 -102 64 -72 129 11 25 13 25 88 19
87 -7 134 4 181 43 33 29 59 72 59 102 0 35 -48 79 -106 98 -51 16 -57 16
-112 -1 -95 -30 -192 -118 -246 -224 -9 -18 -21 -30 -26 -27 -18 11 -9 60 20
105 80 125 100 167 100 212 0 34 -6 50 -25 68 -32 30 -107 38 -159 16 -48 -20
-46 -20 -46 5 0 58 -56 93 -137 87 -48 -4 -53 -3 -48 13 5 15 -4 21 -50 34
-31 9 -62 14 -69 12 -7 -3 -31 -36 -52 -74 -99 -174 -159 -266 -162 -249 -4
18 12 74 33 121 65 142 78 174 79 199 1 27 -2 30 -54 42 -48 11 -56 11 -67 -3
-11 -15 -13 -15 -19 0 -13 35 -121 49 -179 23z m153 -58 c19 -19 15 -36 -30
-152 -49 -123 -81 -166 -126 -166 -43 0 -56 21 -49 84 8 81 76 202 133 234 25
15 57 15 72 0z m1098 -373 c9 -23 -14 -70 -46 -93 -40 -30 -113 -48 -140 -36
-21 9 -20 11 20 57 64 72 152 110 166 72z"/>
<path d="M4512 9493 c-18 -8 -44 -29 -57 -45 -23 -27 -25 -28 -25 -8 0 11 -7
23 -15 27 -15 5 -104 -14 -116 -26 -4 -3 -3 -85 1 -181 8 -195 3 -222 -47
-258 -68 -48 -123 -41 -147 18 -9 22 -16 42 -16 44 0 2 25 22 55 45 67 51 98
106 99 178 1 69 -26 107 -79 111 -78 7 -161 -55 -195 -145 -22 -60 -27 -183
-9 -230 6 -15 17 -47 24 -70 13 -41 12 -43 -9 -43 -28 0 -53 48 -62 120 -11
92 -41 177 -72 200 -21 18 -36 21 -72 17 -37 -4 -52 -12 -84 -49 -23 -26 -41
-38 -43 -30 -7 17 -21 15 -75 -10 -30 -14 -48 -29 -48 -40 0 -15 27 -136 76
-345 13 -54 15 -78 7 -95 -11 -22 -12 -22 -28 17 -15 33 -135 375 -135 383 0
1 -9 2 -19 2 -25 0 -101 -50 -101 -67 0 -7 -11 -13 -25 -13 -32 0 -73 -21
-102 -52 -37 -39 -53 -92 -53 -173 0 -87 22 -161 69 -230 35 -52 37 -61 17
-68 -31 -12 -55 20 -111 153 -28 65 -83 181 -90 188 -5 6 -48 -18 -72 -41 -30
-27 -29 -41 7 -121 17 -37 40 -91 51 -119 l20 -52 -107 108 c-59 59 -110 107
-114 107 -4 0 -24 -18 -44 -40 -41 -46 -44 -68 -17 -142 32 -86 62 -211 55
-231 -3 -10 1 -38 11 -62 14 -39 15 -47 2 -72 -17 -31 -54 -68 -77 -75 -20 -7
-65 17 -83 43 -14 19 -12 26 14 76 24 45 29 67 29 123 0 58 -4 72 -29 107 -35
48 -71 59 -121 35 -80 -39 -119 -153 -89 -260 28 -101 119 -221 185 -242 84
-28 177 50 217 181 4 12 21 18 60 21 36 3 64 12 83 27 39 31 82 96 90 137 6
33 6 33 54 27 58 -7 97 16 131 76 17 31 29 40 58 45 42 7 81 37 109 85 19 31
21 31 27 12 4 -15 -4 -38 -29 -79 -45 -72 -49 -130 -11 -167 47 -48 142 -23
185 47 26 43 26 117 1 191 -24 68 -19 75 66 112 40 18 53 29 53 45 0 11 -14
78 -32 148 -47 189 -42 272 16 272 31 0 50 -39 76 -160 28 -129 49 -167 96
-176 52 -10 97 3 129 36 23 24 37 30 69 30 50 0 116 29 173 76 33 27 43 31 43
18 0 -19 33 -16 95 10 l37 16 -8 183 c-6 163 -5 186 10 209 24 36 50 40 77 12
29 -31 53 -30 78 2 27 34 26 46 -5 83 -29 35 -37 37 -82 14z m-344 -168 c18
-38 14 -91 -8 -135 -19 -36 -54 -70 -73 -70 -5 0 -7 42 -5 94 2 75 7 98 22
115 26 28 50 26 64 -4z m-824 -387 c21 -34 86 -234 86 -266 0 -62 -65 -96
-103 -54 -47 51 -92 218 -76 277 10 34 41 65 66 65 7 0 19 -10 27 -22z m-420
-547 c61 -67 69 -101 35 -145 -16 -21 -28 -26 -53 -24 -25 2 -30 7 -28 23 9
55 6 70 -14 79 -16 7 -27 30 -43 88 -12 43 -25 86 -28 96 -6 17 72 -53 131
-117z m596 32 c0 -43 -9 -63 -29 -63 -44 0 -52 43 -19 101 22 39 22 39 35 17
7 -13 12 -37 13 -55z m-923 -18 c50 -35 68 -164 29 -203 -14 -15 -17 -14 -31
3 -23 31 -55 122 -55 158 0 30 14 57 30 57 3 0 15 -7 27 -15z"/>
<path d="M4950 9370 c-56 -9 -80 -27 -80 -63 0 -18 5 -19 75 -13 93 9 104 13
116 43 17 45 2 49 -111 33z"/>
<path d="M7759 9029 c-113 -18 -186 -101 -149 -170 11 -19 40 -27 40 -11 0 19
75 94 113 113 32 17 54 20 111 17 61 -3 79 -9 127 -40 124 -80 114 -179 -34
-335 -102 -109 -208 -172 -288 -173 -44 0 -69 15 -92 56 -4 7 44 57 116 120
67 60 127 114 132 120 6 6 42 39 82 73 40 35 70 68 67 76 -3 7 -27 24 -53 38
l-47 26 -140 -121 c-206 -179 -324 -289 -324 -302 0 -19 86 -75 107 -70 14 4
23 -4 36 -35 28 -64 68 -86 153 -86 64 0 80 4 157 43 61 32 107 64 159 115
114 112 158 216 136 319 -28 133 -245 254 -409 227z"/>
<path d="M2890 8983 c-51 -19 -65 -72 -31 -114 26 -33 86 -32 112 2 10 13 19
33 19 44 0 44 -59 84 -100 68z"/>
<path d="M8104 8442 c-77 -27 -162 -82 -203 -131 -30 -37 -36 -52 -36 -92 0
-38 6 -55 31 -86 37 -46 97 -81 156 -91 l43 -8 -3 -51 c-3 -45 0 -54 29 -87
57 -65 119 -83 231 -67 116 16 293 120 313 182 15 46 -50 90 -83 57 -15 -15
-16 -50 -1 -65 26 -26 -155 -112 -253 -120 -64 -6 -108 13 -108 46 0 30 27 48
243 162 43 23 77 48 77 56 0 19 -58 93 -73 93 -7 0 -52 -23 -102 -51 -244
-137 -240 -136 -311 -94 -71 42 -82 84 -36 136 l28 31 59 -29 c109 -51 230
-29 271 49 20 39 12 68 -28 109 -67 67 -148 84 -244 51z m214 -103 c6 -56
-122 -100 -202 -70 -25 10 -27 13 -15 28 25 30 131 73 174 70 35 -2 40 -5 43
-28z"/>
<path d="M2048 8270 c-119 -64 -211 -252 -192 -390 17 -118 105 -194 170 -146
18 14 17 17 -33 63 -29 27 -59 65 -68 85 -23 56 -19 143 9 203 26 56 85 114
119 116 82 4 131 -22 237 -130 129 -130 189 -250 160 -321 -14 -35 -53 -65
-70 -55 -5 3 -46 50 -89 103 -84 103 -197 239 -237 285 -13 15 -28 27 -33 27
-12 0 -61 -84 -61 -104 0 -25 379 -476 400 -476 23 0 74 74 67 99 -4 15 3 23
32 35 21 8 52 31 69 51 29 33 32 41 32 105 0 79 -21 140 -76 228 -48 75 -161
183 -221 212 -67 33 -165 37 -215 10z"/>
<path d="M8590 7866 c-80 -18 -163 -61 -204 -106 -29 -33 -36 -48 -36 -83 0
-70 55 -139 145 -181 l52 -25 -5 -50 c-4 -49 -4 -51 46 -99 36 -35 48 -53 41
-63 -15 -23 -10 -92 10 -135 44 -97 164 -135 313 -100 l57 13 42 -43 c24 -24
41 -44 39 -44 -3 0 -86 -12 -185 -26 -99 -14 -218 -30 -265 -36 -47 -5 -89
-14 -94 -19 -6 -5 6 -31 28 -64 40 -61 35 -60 169 -34 26 5 61 9 78 9 27 0 29
-2 23 -25 -9 -36 20 -105 59 -143 67 -65 201 -81 331 -39 90 28 136 70 136
121 0 43 -31 108 -61 129 -20 15 -20 15 10 22 37 8 38 20 9 86 -18 42 -24 50
-42 45 -12 -3 -50 -9 -86 -12 l-65 -6 -38 41 c-20 22 -37 45 -37 50 0 5 12 19
27 31 87 68 84 155 -8 234 -72 62 -205 72 -335 26 -55 -19 -60 -19 -71 -3 -27
36 -8 57 77 87 25 8 137 47 249 86 112 38 206 70 208 70 1 0 3 6 3 13 0 20
-69 97 -86 97 -14 0 -296 -97 -464 -160 l-75 -28 -40 22 c-35 19 -85 76 -85
97 0 15 62 79 77 79 8 0 31 -14 53 -31 59 -48 165 -64 235 -35 112 47 41 208
-105 236 -62 12 -59 12 -130 -4z m221 -106 c26 -15 24 -35 -7 -59 -51 -40
-138 -39 -189 1 -25 20 -26 22 -9 32 61 34 165 47 205 26z m243 -520 c14 -5
30 -19 36 -30 17 -31 -13 -63 -51 -55 -22 5 -34 0 -59 -24 -56 -53 -195 -66
-235 -21 -22 25 -16 59 16 83 59 43 230 71 293 47z m200 -431 c43 -34 33 -68
-29 -99 -41 -20 -68 -26 -148 -28 l-97 -4 -35 35 c-63 63 -49 76 100 97 50 6
97 13 105 15 44 8 80 3 104 -16z"/>
<path d="M1777 7479 c-32 -19 -60 -90 -61 -154 0 -46 6 -72 26 -110 33 -63
132 -159 196 -188 27 -13 47 -28 44 -35 -8 -25 -59 -11 -136 38 -108 70 -150
90 -186 90 -41 0 -86 -45 -96 -95 -6 -34 -3 -52 23 -122 3 -8 -4 -13 -19 -13
-56 0 -92 -57 -86 -139 3 -45 1 -50 -15 -45 -13 4 -21 -4 -33 -31 -37 -90 -45
-79 145 -201 94 -60 171 -112 171 -116 0 -10 -54 11 -214 81 -76 34 -140 60
-142 58 -2 -1 -10 -31 -18 -66 -13 -56 -13 -63 1 -68 13 -5 13 -8 -4 -22 -23
-18 -43 -70 -43 -111 0 -14 12 -49 26 -78 45 -90 156 -169 269 -193 51 -10 66
-9 97 4 77 32 103 137 53 211 -31 45 -31 46 0 46 53 0 81 50 76 135 -1 17 2
43 8 57 7 18 6 30 -2 41 -7 8 -72 51 -144 97 -147 90 -176 118 -171 164 6 61
39 49 273 -103 50 -32 93 -57 96 -55 3 1 14 28 24 59 19 55 19 55 0 73 -11 10
-73 51 -138 91 -123 76 -164 111 -173 149 -7 27 11 52 39 52 20 0 93 -39 190
-101 54 -35 114 -47 146 -29 35 18 61 70 61 120 0 37 6 50 31 75 53 52 64 81
63 175 0 65 -5 96 -22 133 -22 48 -50 66 -38 25 3 -13 9 -50 12 -83 11 -105
-30 -164 -100 -144 -51 15 -58 28 -45 88 13 64 6 121 -24 173 -36 65 -110 96
-160 67z m70 -69 c49 -29 79 -98 75 -167 -3 -35 -25 -28 -70 21 -47 51 -72 96
-72 129 0 43 18 47 67 17z m-281 -1131 c124 -56 157 -83 157 -130 0 -57 -54
-64 -160 -22 -118 47 -196 146 -151 191 19 19 35 15 154 -39z"/>
<path d="M9065 6524 c-77 -28 -112 -88 -96 -169 9 -47 24 -77 62 -126 l28 -36
-24 -11 c-23 -11 -25 -16 -19 -54 11 -71 15 -74 100 -81 42 -4 120 -7 173 -7
106 0 137 -11 161 -53 14 -27 14 -29 -12 -48 -51 -38 -28 -99 37 -99 24 0 39
7 54 26 26 33 20 65 -21 117 l-29 37 26 0 c20 0 25 4 22 18 -3 9 -8 39 -12 65
-3 27 -12 50 -18 53 -7 2 -88 8 -180 13 -166 9 -169 9 -199 37 -59 55 -77 142
-35 168 12 8 36 17 52 20 28 6 32 2 57 -44 49 -89 149 -141 228 -120 134 36
66 232 -100 288 -75 26 -193 28 -255 6z m297 -135 c95 -21 104 -81 13 -87 -60
-4 -97 11 -136 56 -29 33 -30 36 -13 43 20 8 59 4 136 -12z"/>
<path d="M1070 6036 c-14 -8 -36 -34 -50 -58 -21 -37 -25 -56 -25 -128 0 -74
4 -93 29 -143 115 -228 474 -295 572 -106 28 55 13 148 -33 201 -12 13 11 9
104 -19 133 -39 167 -56 196 -95 26 -34 15 -75 -24 -97 -52 -29 -120 29 -98
84 14 36 10 45 -20 45 -39 0 -61 -32 -61 -88 0 -38 6 -50 39 -83 35 -35 44
-39 88 -39 86 0 136 60 136 160 0 125 -66 178 -328 263 -167 54 -242 73 -251
64 -3 -3 -9 -26 -11 -50 l-5 -44 58 -23 c32 -13 77 -42 101 -65 37 -36 43 -47
43 -83 0 -75 -43 -98 -163 -90 -127 9 -253 76 -307 162 -29 47 -31 123 -5 142
25 19 67 17 110 -3 31 -15 37 -15 45 -3 15 23 12 56 -8 80 -22 28 -96 37 -132
16z"/>
<path d="M9301 5505 c4 -89 10 -101 49 -107 24 -3 25 -1 28 62 2 36 0 80 -3
98 -5 29 -9 32 -41 32 l-36 0 3 -85z"/>
<path d="M1425 5138 c10 -103 15 -128 28 -128 7 0 23 -3 36 -7 l24 -6 -8 94
c-4 52 -12 97 -18 101 -7 4 -25 8 -40 8 l-28 0 6 -62z"/>
<path d="M9513 5093 c-25 -5 -59 -51 -46 -64 5 -5 36 -14 68 -20 108 -19 153
-62 162 -155 5 -43 3 -55 -10 -60 -14 -5 -113 29 -505 172 -51 19 -99 34 -106
34 -14 0 -26 -42 -26 -95 0 -28 5 -35 33 -45 17 -7 100 -36 182 -65 83 -29
195 -70 250 -90 55 -20 108 -39 118 -42 21 -7 22 -28 2 -83 -8 -23 -15 -69
-15 -101 0 -50 3 -60 26 -78 15 -12 35 -21 45 -21 16 0 19 8 19 53 0 29 7 77
15 107 64 231 59 383 -15 472 -45 54 -136 91 -197 81z"/>
<path d="M9021 4723 c-25 -90 -29 -86 159 -176 155 -74 171 -83 181 -114 13
-40 8 -49 -37 -68 -30 -12 -40 -29 -35 -58 2 -9 1 -9 -74 38 -139 88 -242 70
-275 -47 -8 -26 1 -73 25 -130 6 -14 2 -18 -18 -18 -54 0 -103 -69 -95 -135 3
-29 0 -36 -17 -41 -27 -8 -64 -43 -81 -76 -24 -46 -18 -141 12 -201 51 -101
233 -247 307 -247 27 0 57 32 57 61 0 41 -73 67 -85 29 -3 -11 -10 -20 -14
-20 -18 0 -104 66 -145 111 -79 88 -102 165 -61 199 19 15 37 5 170 -100 134
-105 159 -122 169 -113 10 11 46 94 46 107 0 6 -22 27 -48 46 -47 35 -173 130
-224 170 -32 25 -35 42 -12 65 19 19 52 14 93 -14 82 -58 242 -151 259 -151
27 0 61 93 42 115 -9 11 -7 16 9 25 59 31 68 158 18 238 l-27 42 33 0 c20 0
41 7 50 18 19 21 22 86 7 127 -9 24 -8 26 13 23 19 -3 25 5 40 51 21 65 17 73
-68 111 -33 15 -127 60 -208 99 -81 39 -150 71 -152 71 -2 0 -9 -17 -14 -37z
m151 -509 c96 -58 150 -128 140 -180 -8 -44 -44 -41 -138 12 -47 27 -104 65
-127 85 -34 30 -41 42 -41 73 0 21 6 41 15 47 25 17 86 2 151 -37z"/>
<path d="M1307 4732 c-28 -31 -21 -77 18 -121 35 -38 35 -40 13 -43 -25 -3
-27 -25 -7 -100 l10 -38 189 0 190 0 38 -35 c39 -35 69 -101 59 -129 -7 -18
-44 -42 -77 -49 -21 -4 -30 2 -55 41 -46 71 -102 105 -180 110 -61 4 -66 3
-96 -27 -28 -29 -31 -36 -25 -74 11 -70 54 -128 118 -161 48 -24 73 -30 155
-34 l97 -5 -52 -13 c-70 -18 -146 -58 -171 -90 -38 -48 -21 -127 37 -176 l32
-26 -30 -7 c-36 -8 -37 -20 -8 -81 l21 -46 69 7 c69 7 70 7 104 -26 41 -39 42
-53 8 -75 -107 -70 -47 -230 101 -268 32 -9 71 -16 85 -16 45 0 169 37 214 64
54 31 85 33 120 5 52 -41 32 -68 -84 -117 -41 -17 -136 -56 -210 -87 -204 -85
-210 -87 -210 -97 0 -13 60 -86 76 -92 12 -5 147 48 413 160 l114 48 35 -20
c20 -10 44 -33 55 -51 21 -37 13 -63 -30 -100 l-26 -21 -49 33 c-64 45 -143
63 -200 46 -54 -16 -98 -61 -98 -98 0 -40 43 -98 95 -129 42 -24 52 -26 138
-22 75 3 102 9 149 31 69 34 143 105 151 145 14 71 -50 165 -140 206 -38 17
-41 20 -31 41 6 13 8 39 4 59 -8 44 -74 103 -125 112 -69 11 -71 13 -71 55 0
160 -161 240 -352 174 l-46 -15 -37 36 c-20 19 -35 37 -33 39 4 4 437 90 505
101 24 4 50 12 60 19 15 11 14 16 -16 54 -49 61 -55 63 -162 41 -125 -26 -126
-26 -122 8 6 36 -19 93 -57 131 -35 35 -111 61 -179 62 l-46 0 44 14 c53 16
97 57 112 102 16 51 -13 135 -69 196 -31 32 -40 47 -28 47 32 0 10 130 -22
130 -9 1 -94 2 -187 3 -145 2 -175 5 -198 20 -32 21 -36 57 -7 75 24 15 26 54
4 76 -21 22 -77 20 -97 -2z m275 -441 c32 -12 78 -57 78 -76 0 -12 -12 -15
-57 -14 -118 1 -197 43 -158 83 18 18 98 22 137 7z m338 -369 c38 -18 62 -64
44 -82 -12 -12 -242 -60 -286 -60 -29 0 -78 38 -78 61 0 28 62 67 137 87 84
22 127 21 183 -6z m192 -399 c48 -44 1 -94 -126 -132 -90 -28 -165 -28 -200 0
-14 11 -26 25 -26 30 0 19 39 47 58 42 25 -6 62 13 62 32 0 18 7 22 71 40 63
17 135 12 161 -12z m223 -577 c14 -9 25 -20 25 -25 0 -10 -90 -47 -138 -56
-37 -8 -92 10 -92 29 0 18 43 56 76 66 39 12 99 6 129 -14z"/>
<path d="M8641 3616 c-50 -28 -101 -130 -101 -206 0 -30 -5 -38 -38 -55 -44
-24 -82 -91 -82 -147 0 -47 27 -116 50 -128 25 -13 30 -3 14 28 -19 37 -17 76
5 103 17 21 21 22 43 10 14 -7 107 -102 207 -212 100 -109 186 -199 191 -199
18 0 62 101 53 121 -10 22 -151 179 -287 319 -56 58 -105 113 -109 122 -10 27
26 101 57 118 25 13 31 12 64 -6 31 -16 37 -24 34 -49 -15 -162 2 -238 63
-275 128 -79 226 98 146 265 -33 70 -116 156 -178 185 -49 23 -97 25 -132 6z
m240 -295 c51 -79 31 -149 -29 -104 -60 44 -92 125 -72 178 l11 28 31 -29 c17
-16 44 -49 59 -73z"/>
<path d="M8140 2949 c-22 -23 -40 -46 -40 -51 0 -6 13 -29 28 -52 15 -22 60
-89 100 -147 40 -59 72 -113 72 -121 0 -20 -40 -55 -71 -63 -58 -14 -146 59
-182 153 -16 39 -16 46 -2 72 9 16 27 33 40 36 49 12 24 64 -31 64 -65 0 -124
-79 -124 -164 l0 -46 -48 0 c-41 0 -53 -5 -79 -32 -36 -38 -63 -98 -63 -141 0
-30 0 -30 -20 -12 -12 11 -41 20 -73 22 -44 4 -58 0 -92 -22 -22 -14 -51 -43
-65 -63 -35 -52 -36 -180 -2 -264 13 -31 20 -62 16 -69 -4 -8 -12 3 -19 29
-19 62 -63 131 -98 153 -62 37 -141 13 -182 -55 -21 -35 -24 -36 -30 -17 -5
15 1 32 18 54 75 99 75 177 -1 216 -32 17 -91 -2 -131 -41 -55 -54 -63 -96
-35 -205 l16 -63 -29 -39 c-26 -37 -31 -39 -78 -38 -58 1 -99 -19 -132 -66
l-23 -32 0 29 c0 19 14 43 44 77 52 58 63 93 42 142 -18 45 -48 61 -99 54 -47
-6 -83 -30 -116 -78 -22 -32 -23 -41 -18 -130 l6 -96 -37 -35 c-29 -28 -41
-34 -57 -28 -65 27 -162 -4 -232 -73 l-43 -41 0 28 0 29 -56 -6 c-31 -3 -62
-11 -67 -16 -6 -6 -14 -94 -19 -198 -8 -185 -8 -188 -33 -210 -34 -30 -49 -29
-63 2 -12 26 -40 32 -72 15 -39 -21 -32 -97 10 -120 29 -15 75 1 117 42 l33
32 0 -28 0 -28 58 7 c31 4 62 11 67 16 6 6 12 87 15 182 5 163 6 174 29 205
65 86 165 103 190 31 17 -48 14 -65 -14 -77 -14 -6 -45 -30 -70 -53 -56 -52
-81 -121 -65 -181 22 -81 78 -97 171 -50 68 34 104 89 124 192 13 69 12 83 -6
174 -18 90 -18 100 -4 122 18 28 32 31 39 7 5 -17 33 -179 60 -348 12 -79 24
-88 81 -61 18 9 38 16 44 16 6 0 11 8 11 18 0 14 7 17 40 14 30 -3 51 3 84 22
114 67 140 282 53 438 -19 35 -19 38 -3 62 9 14 20 26 24 26 8 0 45 -114 101
-309 16 -57 35 -108 42 -112 19 -11 109 38 109 59 0 14 7 17 33 15 84 -9 167
101 167 223 0 28 6 47 20 59 19 17 20 17 41 -9 66 -84 163 -70 234 34 40 60
47 161 17 253 -40 123 -37 193 9 217 18 10 25 9 39 -6 22 -23 11 -3 231 -419
20 -38 43 -71 52 -73 8 -2 31 17 52 42 l37 45 -87 166 c-48 91 -85 169 -82
171 3 3 14 1 25 -5 26 -14 97 -14 123 -1 18 10 19 7 19 -48 0 -66 26 -117 70
-139 30 -15 109 -17 145 -3 40 15 130 110 159 167 30 61 47 161 37 223 -15 92
-81 157 -135 132 -34 -15 -33 -32 5 -68 57 -55 73 -92 73 -169 0 -81 -18 -125
-71 -179 -49 -48 -91 -61 -137 -42 -66 28 -102 127 -72 199 8 20 20 37 25 37
6 0 36 -38 68 -85 63 -95 62 -95 118 -15 l26 38 -170 255 c-93 140 -175 258
-180 261 -6 4 -28 -12 -51 -35z m-940 -600 c14 -24 0 -67 -30 -94 -18 -16 -19
-15 -29 23 -14 50 -1 92 28 92 11 0 25 -9 31 -21z m427 -11 c32 -36 69 -116
88 -194 15 -64 15 -74 1 -107 -8 -21 -22 -37 -31 -37 -31 0 -55 20 -55 46 0
34 -17 64 -36 64 -22 0 -55 82 -61 150 -5 49 -3 60 16 79 27 27 52 27 78 -1z
m-801 -173 c10 -24 -3 -58 -33 -89 l-27 -30 -7 33 c-4 18 -3 48 3 67 7 27 14
34 34 34 13 0 27 -7 30 -15z m499 -75 c25 -40 65 -166 65 -207 0 -38 -30 -100
-53 -110 -45 -20 -50 -12 -98 152 -34 119 -36 144 -8 179 31 39 63 34 94 -14z
m-428 -168 c6 -4 21 -29 32 -56 29 -67 30 -216 2 -263 -24 -38 -57 -51 -78
-31 -13 14 -53 222 -53 279 0 53 58 96 97 71z m-399 -359 c-7 -114 -47 -179
-86 -140 -21 21 -20 103 2 144 16 32 61 73 79 73 6 0 8 -30 5 -77z"/>
<path d="M2554 2826 c-108 -35 -243 -131 -262 -186 -10 -26 -8 -34 12 -57 21
-24 28 -26 51 -18 36 13 50 49 27 71 -15 16 -14 19 18 46 93 77 265 123 310
83 37 -33 25 -50 -87 -122 -60 -39 -129 -82 -155 -97 -27 -16 -51 -32 -54 -38
-4 -6 14 -31 39 -56 l45 -45 39 24 c60 36 205 129 235 150 59 41 173 17 213
-45 15 -23 15 -27 -1 -61 -24 -51 -43 -58 -90 -35 -88 44 -188 34 -251 -24
-43 -39 -47 -78 -15 -124 58 -81 201 -96 318 -33 93 50 156 115 173 178 27 96
-88 201 -219 203 l-46 0 4 39 c5 49 -17 92 -65 128 -32 25 -46 28 -117 30 -46
2 -98 -3 -122 -11z m333 -429 c12 -12 8 -18 -34 -44 -66 -41 -105 -55 -144
-51 -45 4 -50 34 -12 70 49 46 155 60 190 25z"/>
<path d="M3168 2357 c-133 -56 -251 -165 -311 -287 -27 -55 -32 -76 -32 -136
0 -64 3 -77 30 -116 68 -96 220 -164 348 -156 139 9 241 100 193 173 -23 35
-37 31 -72 -23 -21 -32 -48 -56 -85 -75 -47 -25 -62 -28 -119 -24 -106 7 -191
65 -205 140 -12 66 57 187 172 298 105 103 193 142 257 115 19 -8 40 -24 46
-37 12 -21 0 -34 -184 -215 -108 -107 -196 -198 -196 -202 0 -5 26 -21 58 -35
l57 -26 223 222 c122 122 222 224 222 228 0 8 -75 56 -99 64 -11 3 -22 1 -26
-5 -3 -6 -16 8 -29 32 -31 60 -65 81 -133 85 -44 3 -72 -2 -115 -20z"/>
<path d="M3927 1986 c-123 -45 -237 -197 -237 -315 0 -51 43 -96 100 -106 22
-4 40 -9 40 -11 0 -3 -23 -39 -51 -80 -28 -42 -48 -81 -46 -88 5 -12 78 -36
110 -36 8 0 77 93 153 206 76 114 151 219 166 234 59 60 196 47 209 -20 2 -8
0 -32 -4 -52 l-8 -38 -60 0 c-44 0 -75 -7 -114 -26 -61 -28 -90 -60 -104 -111
-21 -76 32 -123 139 -123 55 0 73 5 112 30 83 52 169 182 183 278 8 51 -20
100 -76 132 -53 29 -152 32 -211 6 -46 -20 -48 -20 -48 2 0 31 -38 81 -78 101
-54 27 -128 35 -175 17z m91 -82 c12 -8 22 -23 22 -32 0 -16 -121 -205 -157
-244 -22 -25 -49 -22 -78 6 -20 20 -24 31 -18 58 13 72 79 168 141 205 44 27
60 28 90 7z m301 -263 c16 -11 4 -36 -47 -99 -62 -77 -141 -96 -128 -31 9 49
45 89 100 115 58 27 56 27 75 15z"/>
<path d="M4663 1778 c-6 -7 -36 -62 -68 -123 -118 -224 -154 -293 -214 -406
-33 -64 -61 -124 -61 -133 0 -10 9 -16 24 -16 22 0 38 28 161 276 74 152 138
274 141 271 6 -5 -6 -121 -43 -434 -9 -79 -15 -145 -12 -147 2 -2 29 -6 59 -8
l55 -3 139 278 c77 152 141 275 144 272 5 -4 -20 -260 -38 -390 -5 -38 -12
-98 -16 -132 -6 -61 -6 -62 21 -69 97 -24 280 42 342 124 28 37 33 52 33 98 0
46 -3 56 -26 70 -32 21 -38 14 -53 -61 -17 -87 -71 -155 -141 -175 -27 -8 -30
-6 -29 13 1 41 27 321 44 475 20 177 20 176 -61 187 -60 8 -48 23 -164 -200
-82 -157 -130 -248 -137 -255 -8 -8 3 150 21 309 9 80 14 152 11 162 -4 11
-21 19 -52 23 -63 8 -69 8 -80 -6z"/>
<path d="M5555 1511 c-59 -6 -60 -7 -60 -36 l0 -30 81 -3 c87 -3 97 2 109 51
7 26 6 27 -31 25 -22 -1 -66 -4 -99 -7z"/>
</g>
</svg>
