<?xml version="1.0" standalone="no"?>
<!DOCTYPE svg PUBLIC "-//W3C//DTD SVG 20010904//EN"
 "http://www.w3.org/TR/2001/REC-SVG-20010904/DTD/svg10.dtd">
<svg version="1.0" xmlns="http://www.w3.org/2000/svg"
 width="1080.000000pt" height="1080.000000pt" viewBox="0 0 1080.000000 1080.000000"
 preserveAspectRatio="xMidYMid meet">

<g transform="translate(0.000000,1080.000000) scale(0.100000,-0.100000)"
fill="#000000" stroke="none">
<path d="M5690 10761 c-65 -14 -148 -61 -202 -114 -56 -56 -118 -159 -118
-198 0 -13 -7 -42 -15 -64 -25 -69 -13 -173 29 -264 50 -110 206 -140 318 -63
l46 31 -8 -32 c-4 -18 -12 -48 -18 -67 -6 -19 -21 -69 -32 -110 -42 -148 -73
-194 -135 -194 -74 0 -112 87 -64 148 22 29 73 35 111 15 43 -23 48 46 5 82
-31 26 -110 25 -153 -1 -117 -73 -97 -241 35 -284 148 -48 268 25 338 206 18
46 37 106 42 134 6 28 14 61 20 75 16 39 51 161 51 178 0 8 8 35 17 59 20 55
11 63 -65 60 l-53 -3 -29 -69 c-16 -38 -39 -83 -52 -101 -25 -38 -93 -85 -120
-85 -30 0 -73 27 -94 57 -28 42 -24 204 6 293 71 203 243 329 331 241 34 -35
36 -58 9 -111 -28 -55 -26 -77 8 -85 70 -15 117 35 110 118 -5 65 -28 98 -88
128 -48 24 -164 35 -230 20z"/>
<path d="M6215 10393 c-27 -7 -94 -54 -127 -90 -69 -73 -138 -232 -138 -317 0
-20 9 -54 20 -75 44 -88 149 -108 245 -46 l55 35 5 -28 c14 -66 55 -97 133
-98 31 -1 73 -6 92 -11 19 -5 40 -8 46 -6 6 2 54 76 105 164 52 89 111 179
132 200 33 35 43 40 75 37 36 -3 37 -4 36 -43 0 -29 -11 -57 -37 -98 -20 -31
-37 -59 -37 -61 0 -3 -22 -41 -50 -85 -27 -44 -50 -84 -50 -88 0 -3 -6 -14
-14 -22 -7 -9 -17 -25 -20 -37 -6 -19 1 -24 59 -43 36 -11 71 -21 78 -21 6 0
35 39 62 85 28 47 55 94 60 103 6 9 29 49 52 87 49 83 88 122 129 131 32 6 64
-14 64 -40 0 -16 -32 -86 -63 -138 -92 -154 -101 -172 -101 -219 -1 -37 4 -53
24 -74 31 -35 79 -55 126 -55 30 0 43 -7 69 -38 52 -60 113 -85 214 -86 68 -1
99 4 148 23 34 13 67 29 74 37 21 26 -1 31 -53 13 -91 -31 -171 -23 -220 23
-28 26 -30 32 -24 71 11 67 20 71 154 72 110 0 119 2 158 27 47 30 81 74 94
119 24 82 -66 153 -195 153 -61 0 -78 -4 -133 -33 -76 -41 -182 -150 -220
-227 -28 -57 -45 -65 -50 -22 -2 16 11 49 35 87 119 196 125 208 126 263 1 55
-18 81 -78 109 -53 24 -90 23 -147 -4 l-46 -23 -6 25 c-10 50 -43 89 -83 100
-47 13 -94 14 -127 2 -23 -9 -24 -8 -23 17 2 24 -4 28 -72 52 -44 14 -76 21
-78 15 -2 -5 -58 -102 -126 -215 -87 -147 -123 -199 -125 -183 -2 12 13 59 32
105 19 46 55 132 80 191 25 60 46 115 46 122 0 8 -26 17 -72 24 -68 10 -74 9
-90 -9 -16 -20 -17 -20 -23 1 -4 11 -22 27 -41 35 -32 13 -118 17 -159 7z
m170 -83 c21 -24 18 -41 -37 -170 -65 -156 -78 -178 -112 -200 -41 -24 -69
-26 -92 -3 -13 14 -16 29 -11 83 7 81 49 177 109 245 59 67 109 83 143 45z
m1319 -445 c32 -32 -31 -118 -110 -151 -38 -16 -102 -18 -123 -5 -30 19 143
171 195 171 12 0 29 -7 38 -15z"/>
<path d="M4324 10356 c-17 -8 -45 -31 -62 -52 -25 -30 -32 -34 -37 -21 -3 9
-7 24 -10 32 -5 17 -44 14 -115 -9 l-35 -11 0 -110 c0 -61 2 -164 5 -231 5
-120 5 -121 -23 -157 -32 -42 -93 -77 -135 -77 -31 0 -60 27 -80 73 -18 42
-15 51 24 72 80 43 154 161 154 244 -1 37 -34 106 -61 125 -32 22 -69 20 -131
-7 -53 -24 -138 -104 -138 -130 0 -8 -7 -29 -16 -46 -12 -25 -16 -60 -16 -140
1 -99 12 -155 47 -243 6 -15 2 -18 -19 -18 -22 0 -30 8 -46 46 -11 25 -20 57
-20 71 0 44 -41 197 -62 231 -31 51 -60 65 -119 60 -54 -6 -97 -37 -127 -93
l-15 -30 -12 27 -11 28 -72 -35 c-40 -19 -72 -39 -72 -46 0 -6 4 -28 10 -48
10 -39 37 -157 65 -286 10 -44 24 -104 32 -133 10 -38 11 -58 3 -72 -22 -40
-25 -34 -94 170 -91 270 -111 323 -122 327 -6 2 -39 -15 -73 -37 -50 -32 -62
-45 -58 -60 4 -17 1 -19 -18 -14 -39 10 -91 -14 -134 -62 -56 -60 -63 -82 -64
-205 -1 -123 20 -195 84 -291 37 -54 38 -58 20 -68 -41 -22 -50 -9 -169 250
-16 36 -40 89 -52 118 -13 29 -26 51 -29 50 -40 -19 -121 -85 -121 -98 0 -10
20 -60 44 -111 25 -52 54 -119 66 -149 l21 -55 -46 45 c-49 47 -115 116 -178
185 l-36 40 -56 -55 c-65 -64 -65 -63 -16 -205 51 -149 61 -191 61 -255 0 -39
6 -69 16 -86 16 -23 15 -27 -1 -65 -23 -50 -78 -99 -111 -99 -15 0 -41 15 -65
38 l-41 38 30 48 c60 94 66 208 17 292 -55 94 -142 97 -213 7 -50 -65 -62 -97
-62 -171 0 -123 66 -262 169 -355 63 -57 144 -62 212 -12 45 34 106 128 114
176 l7 39 55 0 c69 0 113 21 159 74 40 45 54 73 63 126 l6 35 66 0 c80 0 106
15 151 89 27 46 38 55 61 56 51 0 105 36 136 92 l30 52 10 -28 c9 -23 7 -32
-14 -60 -13 -17 -36 -58 -50 -89 -23 -50 -25 -61 -15 -91 21 -66 46 -86 102
-86 61 0 108 26 149 83 25 35 29 49 29 109 0 41 -6 80 -15 97 -8 16 -17 47
-21 69 -5 35 -3 41 22 59 16 11 55 30 86 44 32 13 58 30 58 37 0 7 -7 40 -16
75 -50 196 -74 309 -74 340 0 42 26 94 50 102 43 14 67 -28 99 -170 36 -160
40 -173 66 -203 14 -16 38 -35 55 -42 43 -18 103 2 155 51 35 32 47 37 100 41
73 5 136 34 192 88 46 44 53 47 53 26 0 -24 13 -25 85 -6 l70 18 -4 235 -4
236 31 30 c38 39 53 39 80 1 27 -36 60 -39 90 -7 34 36 30 89 -9 121 -34 29
-50 31 -95 12z m-430 -182 c22 -22 29 -56 24 -120 -5 -56 -37 -109 -85 -141
-21 -14 -22 -13 -29 24 -4 21 -3 75 3 121 8 64 16 88 33 107 28 29 33 30 54 9z
m-985 -491 c12 -14 24 -38 27 -52 3 -14 21 -69 40 -121 32 -93 37 -117 35
-172 -1 -37 -34 -68 -71 -68 -23 0 -35 9 -60 45 -48 70 -80 175 -80 263 0 68
2 76 29 103 36 36 54 36 80 2z m-453 -725 c22 -43 17 -84 -14 -120 -48 -53
-133 -40 -97 15 24 37 16 80 -15 87 -18 4 -27 15 -33 40 -9 35 -46 162 -55
190 -7 22 197 -180 214 -212z m670 104 c11 -57 -39 -105 -74 -70 -24 24 -8 97
32 147 8 11 13 8 23 -15 7 -16 15 -44 19 -62z m-1101 -39 c14 -16 30 -46 36
-68 14 -52 5 -153 -15 -173 -15 -15 -18 -14 -33 8 -51 72 -83 180 -69 234 9
35 47 35 81 -1z"/>
<path d="M4855 10207 c-44 -6 -83 -15 -87 -21 -4 -6 -8 -26 -8 -45 l0 -34 58
7 c31 4 83 9 115 13 57 6 57 6 57 39 0 19 1 37 3 42 3 11 -48 11 -138 -1z"/>
<path d="M8215 9786 c-88 -25 -139 -70 -151 -131 -10 -58 46 -133 62 -82 13
43 74 106 131 133 110 54 259 26 348 -66 33 -33 39 -47 43 -93 5 -69 -16 -119
-92 -212 -105 -129 -257 -244 -352 -265 -64 -15 -119 2 -145 43 l-20 32 53 48
c29 27 100 90 158 140 156 135 290 259 290 268 0 10 -117 79 -133 79 -7 0 -49
-33 -93 -72 -155 -140 -406 -363 -440 -391 -19 -16 -34 -35 -34 -42 0 -7 25
-32 57 -55 48 -37 59 -41 75 -31 11 7 21 11 22 9 1 -2 11 -23 23 -48 76 -157
238 -157 471 -2 166 110 272 272 272 414 0 125 -92 224 -285 309 -66 29 -189
36 -260 15z"/>
<path d="M2331 9724 c-23 -19 -31 -34 -31 -59 0 -49 9 -64 49 -83 45 -22 72
-18 105 15 37 36 35 85 -3 124 -37 37 -79 38 -120 3z"/>
<path d="M8679 9086 c-97 -27 -210 -107 -271 -190 -56 -78 -28 -172 74 -246
42 -31 123 -60 165 -60 26 0 28 -8 12 -44 -6 -13 -9 -35 -6 -48 11 -44 66
-114 109 -138 39 -23 54 -25 150 -24 81 1 113 5 132 17 14 10 32 17 40 17 21
0 112 47 178 93 95 64 117 106 82 155 -13 19 -24 22 -57 20 -35 -3 -43 -7 -51
-30 -8 -22 -6 -32 9 -48 24 -26 15 -36 -80 -84 -145 -72 -257 -94 -313 -60
-17 10 -34 24 -37 32 -14 37 -3 45 290 207 40 22 82 47 94 55 l22 15 -47 55
c-49 58 -67 68 -88 51 -7 -6 -34 -22 -60 -36 -26 -14 -71 -38 -99 -54 -207
-114 -204 -112 -244 -105 -81 15 -138 57 -149 111 -5 27 0 38 34 74 l39 43 39
-23 c81 -48 153 -60 234 -38 140 37 177 149 76 232 -76 62 -171 80 -277 51z
m245 -102 c48 -18 -14 -94 -96 -119 -39 -11 -60 -12 -98 -4 -66 14 -79 31 -43
57 85 59 183 87 237 66z"/>
<path d="M1355 8881 c-159 -74 -270 -299 -243 -492 13 -95 73 -175 139 -185
28 -5 41 -1 67 21 l32 27 -42 28 c-49 31 -75 58 -109 115 -20 33 -24 53 -24
120 0 68 4 88 29 138 32 65 72 107 130 136 38 20 39 20 87 1 67 -27 114 -58
183 -121 62 -57 170 -193 198 -249 49 -98 42 -195 -15 -231 l-32 -19 -48 52
c-27 29 -74 84 -104 122 -175 216 -276 331 -291 331 -10 0 -32 -25 -53 -60
l-36 -60 30 -40 c45 -58 192 -236 267 -324 36 -42 92 -109 123 -148 33 -41 65
-73 75 -72 20 0 105 116 92 124 -19 12 -10 33 18 40 44 11 89 43 113 81 28 46
29 167 1 245 -56 161 -199 329 -337 399 -85 43 -184 52 -250 21z"/>
<path d="M9265 8393 c-11 -3 -24 -9 -29 -14 -6 -5 -18 -9 -27 -9 -35 0 -128
-50 -179 -97 -48 -44 -53 -53 -57 -99 -10 -95 70 -200 184 -244 l60 -24 -9
-35 c-16 -55 4 -103 63 -154 l51 -45 -16 -33 c-20 -40 -20 -63 -1 -120 20 -59
67 -114 118 -141 59 -30 184 -36 278 -14 l69 17 44 -48 c42 -46 43 -48 23 -55
-23 -7 -170 -28 -377 -53 -69 -8 -144 -20 -167 -25 -23 -6 -56 -10 -72 -10
-17 0 -31 -3 -31 -6 0 -14 75 -126 89 -133 9 -5 68 -2 131 5 168 19 160 20
154 -18 -7 -44 27 -122 74 -171 62 -64 207 -95 317 -66 22 5 58 15 80 20 60
15 135 60 151 91 30 58 4 163 -52 207 -13 10 -24 21 -24 24 0 3 17 8 39 12
l38 6 -25 76 -26 75 -51 -6 c-174 -21 -166 -22 -211 24 -52 51 -60 76 -31 91
36 19 78 62 92 96 35 82 -54 212 -170 249 -89 28 -189 25 -299 -11 -86 -27
-89 -28 -102 -10 -20 27 -17 51 9 68 12 8 101 42 197 75 372 128 450 157 450
166 0 11 -78 109 -95 118 -11 6 -72 -13 -355 -113 -30 -11 -89 -31 -130 -45
-41 -14 -88 -31 -105 -39 -60 -27 -82 -28 -130 -5 -51 25 -95 81 -95 122 0 19
12 37 42 62 23 20 44 36 48 36 4 0 25 -16 47 -35 87 -74 194 -95 286 -56 103
44 114 119 31 211 -56 62 -104 83 -199 86 -44 2 -89 0 -100 -3z m269 -139 c22
-21 20 -37 -6 -62 -36 -33 -109 -47 -172 -33 -54 12 -108 53 -87 65 64 40 236
60 265 30z m314 -640 c49 -32 15 -104 -43 -90 -32 8 -74 -13 -81 -39 -4 -18
-17 -25 -61 -34 -140 -28 -242 -2 -243 61 0 40 116 102 220 118 72 11 179 3
208 -16z m223 -513 c35 -36 36 -54 5 -86 -59 -59 -292 -88 -363 -45 -40 24
-66 62 -61 92 3 20 12 24 78 36 106 18 196 29 258 31 47 1 57 -3 83 -28z"/>
<path d="M1013 7915 c-32 -23 -60 -74 -72 -135 -14 -70 4 -148 52 -223 54 -85
177 -184 250 -202 31 -8 34 -17 12 -35 -25 -21 -73 -3 -165 59 -114 77 -163
102 -209 104 -51 2 -88 -25 -112 -79 -24 -58 -24 -81 1 -140 11 -26 19 -47 18
-48 -2 -1 -23 -8 -48 -16 -34 -12 -50 -24 -67 -55 -24 -43 -30 -106 -13 -149
10 -27 2 -34 -17 -15 -18 18 -28 5 -54 -71 l-24 -71 25 -20 c14 -10 59 -40
100 -65 41 -25 102 -63 135 -85 33 -21 71 -44 85 -51 14 -7 27 -15 30 -18 3
-4 15 -13 28 -22 45 -31 -3 -26 -83 9 -81 35 -105 46 -227 102 -105 48 -107
48 -129 -34 -23 -87 -23 -80 4 -92 l22 -10 -22 -7 c-35 -11 -56 -69 -51 -145
3 -59 9 -73 48 -130 33 -49 62 -76 119 -113 42 -26 85 -48 96 -48 11 0 29 -7
39 -15 14 -10 45 -15 98 -15 72 0 80 2 113 31 64 56 70 147 14 230 -25 39 -27
44 -11 47 80 14 105 49 113 162 3 47 9 93 13 102 6 13 -5 25 -51 54 -32 20
-74 47 -93 59 -19 12 -74 48 -121 78 -105 67 -131 98 -127 146 3 35 4 36 43
35 24 0 53 -9 70 -21 17 -11 62 -41 100 -65 39 -25 103 -66 143 -92 41 -26 80
-45 87 -42 7 2 23 35 35 72 l23 68 -21 15 c-11 9 -62 43 -114 75 -205 131
-230 149 -249 179 -45 74 -3 120 78 85 15 -7 71 -40 123 -74 117 -76 164 -92
219 -75 55 16 85 67 88 145 1 54 4 62 41 100 80 82 103 206 60 328 -27 79 -47
113 -61 99 -7 -7 -5 -24 6 -53 35 -92 11 -223 -47 -249 -29 -14 -96 3 -121 31
-16 18 -17 23 -4 47 8 15 14 55 14 97 0 87 -25 145 -84 199 -34 31 -49 37 -84
37 -23 0 -52 -7 -64 -15z m117 -113 c48 -50 60 -81 60 -154 0 -76 -52 -52
-125 57 -46 68 -58 102 -45 126 19 34 59 24 110 -29z m-379 -1333 c161 -71
202 -106 197 -167 -2 -27 -10 -40 -30 -51 -24 -14 -33 -13 -97 7 -92 30 -155
66 -213 122 -42 41 -48 51 -48 88 0 38 16 61 43 62 5 0 71 -27 148 -61z"/>
<path d="M9847 6759 c-32 -10 -71 -28 -87 -39 -80 -57 -58 -217 43 -327 38
-41 38 -43 16 -43 -45 0 -53 -13 -40 -63 6 -25 11 -57 11 -70 0 -33 14 -37
128 -37 144 0 333 -18 356 -34 12 -7 28 -26 36 -41 14 -26 13 -28 -10 -46 -50
-38 -52 -41 -45 -68 12 -52 64 -74 118 -50 61 28 58 96 -5 165 l-41 44 33 0
33 0 -7 73 c-4 45 -12 76 -21 83 -8 6 -70 14 -137 18 -68 4 -163 10 -211 14
l-89 7 -43 46 c-55 58 -76 119 -54 158 16 28 49 47 96 57 26 5 31 2 43 -26 25
-59 86 -126 141 -154 113 -56 239 -15 239 79 0 82 -56 173 -134 219 -97 57
-256 72 -369 35z m364 -165 c79 -25 102 -74 49 -102 -36 -19 -113 -8 -167 23
-51 30 -90 84 -70 98 16 11 132 0 188 -19z"/>
<path d="M163 6175 c-70 -30 -109 -138 -98 -265 14 -150 100 -273 247 -351 39
-21 169 -49 226 -49 112 0 219 56 256 134 9 20 16 59 16 94 0 52 -5 67 -35
112 -20 29 -34 54 -32 56 2 2 21 -3 43 -11 21 -8 93 -31 159 -51 99 -31 127
-44 158 -75 42 -42 47 -73 17 -112 -25 -31 -62 -41 -105 -27 -44 15 -62 56
-46 109 15 52 15 51 -22 51 -52 0 -67 -24 -67 -107 0 -70 1 -71 39 -106 68
-62 160 -62 218 -1 40 43 57 101 50 177 -6 71 -38 123 -105 171 -51 38 -199
100 -272 115 -25 6 -83 23 -130 40 -47 17 -92 31 -101 31 -9 0 -30 7 -45 15
-16 8 -34 15 -40 15 -12 0 -25 -104 -17 -127 3 -7 26 -19 51 -28 57 -19 132
-70 164 -110 35 -44 33 -118 -4 -150 -36 -31 -104 -40 -204 -28 -140 17 -297
111 -346 207 -26 51 -29 113 -5 149 14 22 25 27 60 27 25 0 54 -8 72 -20 52
-34 75 -23 75 36 0 38 -18 64 -55 80 -43 17 -81 17 -122 -1z"/>
<path d="M10123 5614 c-3 -9 -2 -59 3 -112 l9 -97 38 -3 37 -3 0 109 c0 91 -3
111 -16 116 -29 11 -65 6 -71 -10z"/>
<path d="M595 5053 c4 -60 10 -111 14 -114 12 -12 56 -18 70 -10 11 7 12 28 6
102 -9 116 -15 129 -61 129 l-36 0 7 -107z"/>
<path d="M10357 5020 c-22 -14 -50 -67 -42 -80 3 -6 26 -10 51 -10 51 0 147
-31 177 -57 33 -30 57 -94 57 -155 0 -42 -4 -58 -13 -58 -7 0 -65 18 -128 41
-63 23 -132 47 -154 54 -22 8 -65 23 -95 35 -30 11 -80 29 -110 40 -30 10 -93
33 -140 50 -122 45 -126 46 -133 18 -4 -12 -7 -48 -7 -79 l0 -57 48 -20 c47
-20 124 -48 322 -117 58 -20 121 -43 140 -50 19 -8 68 -25 108 -40 121 -42
114 -32 86 -122 -13 -43 -24 -102 -24 -131 0 -48 4 -58 34 -88 20 -20 44 -34
58 -34 23 0 24 3 25 68 1 39 16 127 37 213 44 178 48 289 15 386 -24 72 -83
144 -142 175 -47 23 -144 34 -170 18z"/>
<path d="M463 4600 c-61 -37 -56 -96 13 -165 l46 -45 -37 0 c-36 0 -37 -1 -31
-27 4 -16 12 -50 17 -78 6 -27 16 -53 22 -58 7 -4 104 -7 217 -6 263 2 243 4
286 -33 43 -38 64 -82 64 -136 0 -44 -14 -60 -69 -79 -49 -17 -47 -18 -75 30
-32 54 -79 99 -134 127 -35 19 -55 22 -118 18 -69 -3 -79 -6 -100 -31 -56 -65
-5 -208 97 -273 70 -44 266 -74 285 -43 4 6 20 8 40 4 45 -8 125 27 164 72 26
30 30 41 30 96 0 74 -29 138 -92 203 -37 38 -38 43 -20 48 18 6 19 10 7 71 -6
35 -17 71 -25 79 -11 14 -46 16 -239 16 l-227 0 -27 28 c-35 36 -34 56 3 82
38 27 38 54 1 91 -35 34 -54 36 -98 9z m304 -541 c51 -22 113 -74 113 -96 0
-10 -21 -13 -78 -13 -162 0 -253 59 -169 110 41 25 73 25 134 -1z"/>
<path d="M9777 4556 c-9 -35 -17 -70 -17 -78 0 -7 20 -22 43 -32 227 -104 368
-177 382 -200 9 -14 15 -39 13 -58 -3 -30 -6 -33 -43 -38 -36 -5 -40 -9 -50
-43 l-11 -38 -39 31 c-80 64 -133 84 -217 85 -71 0 -79 -2 -107 -30 -56 -53
-65 -153 -21 -228 l21 -35 -52 -9 c-70 -11 -90 -38 -97 -132 -4 -67 -6 -70
-33 -76 -63 -14 -126 -134 -117 -220 11 -98 103 -229 222 -318 142 -105 212
-122 249 -60 16 28 17 36 5 60 -10 22 -21 29 -50 31 -31 3 -39 -1 -50 -23
l-14 -26 -59 39 c-75 50 -134 110 -179 186 -41 67 -46 112 -17 147 25 32 33
27 228 -125 89 -69 168 -126 176 -126 11 0 77 115 77 134 0 3 -117 94 -312
244 -57 43 -69 67 -46 90 33 33 80 10 425 -204 21 -13 24 -12 38 22 35 84 39
113 21 133 -17 19 -17 20 5 23 38 5 69 71 69 147 0 55 -5 74 -35 128 l-35 63
40 0 c55 0 80 27 80 84 0 24 -6 62 -14 84 l-15 41 33 -6 c32 -5 33 -4 45 40 6
25 11 61 11 80 0 32 -3 36 -62 62 -35 16 -150 70 -256 122 -107 51 -199 93
-206 93 -6 0 -20 -29 -29 -64z m120 -553 c109 -50 225 -154 236 -213 8 -39 -6
-77 -32 -85 -29 -9 -287 149 -318 195 -60 88 10 150 114 103z"/>
<path d="M990 3783 c-57 -9 -189 -55 -227 -79 -94 -61 -97 -159 -8 -248 19
-20 35 -37 35 -40 0 -2 -16 -7 -35 -10 -19 -4 -35 -11 -35 -16 0 -4 14 -38 30
-75 l30 -68 43 7 c133 21 123 23 174 -29 l47 -47 -46 -41 c-26 -23 -51 -52
-57 -64 -15 -30 -14 -77 2 -116 69 -164 294 -204 523 -92 40 20 87 35 107 35
67 0 112 -65 70 -103 -16 -13 -110 -54 -303 -132 -30 -12 -98 -40 -150 -62
-52 -22 -109 -46 -127 -53 -57 -21 -57 -31 -2 -93 28 -31 55 -57 60 -57 8 0
273 109 364 150 11 5 65 27 120 50 55 22 108 45 119 51 44 25 146 -61 146
-124 0 -21 -10 -39 -36 -63 -19 -19 -40 -34 -46 -34 -5 0 -28 14 -49 31 -46
36 -134 69 -184 69 -43 0 -132 -39 -160 -70 -29 -32 -26 -88 8 -138 58 -89
163 -125 290 -102 40 7 83 19 97 25 14 7 43 20 65 31 55 25 121 80 145 119 54
87 -17 223 -147 281 -45 19 -54 27 -48 41 5 10 10 32 13 50 11 81 -111 183
-219 183 -25 0 -26 2 -22 48 9 89 -61 193 -154 228 -56 22 -222 16 -270 -9
-47 -25 -63 -21 -111 27 l-44 43 29 11 c15 6 57 13 93 16 36 3 79 10 95 15 17
6 84 20 150 31 66 12 140 28 165 35 25 7 75 16 112 20 37 4 70 10 72 13 5 9
-90 136 -106 141 -10 3 -128 -19 -209 -40 -59 -15 -78 -12 -72 11 9 36 -18
117 -52 158 -19 22 -55 48 -82 59 -47 20 -153 33 -203 26z m176 -164 c49 -13
88 -54 82 -91 -2 -16 -14 -24 -48 -33 -74 -20 -281 -58 -312 -57 -61 2 -103
55 -79 100 13 25 90 62 161 78 71 16 140 17 196 3z m239 -475 c26 -10 45 -56
32 -79 -23 -43 -107 -85 -222 -110 -85 -19 -152 -16 -190 9 -49 32 -17 104 42
93 30 -6 73 17 73 39 0 17 34 35 80 45 45 9 164 11 185 3z m272 -705 c32 -10
60 -35 50 -45 -21 -21 -156 -64 -202 -64 -81 0 -108 35 -60 80 47 44 127 55
212 29z"/>
<path d="M9335 3246 c-67 -29 -123 -129 -132 -234 -5 -67 -7 -70 -33 -76 -44
-8 -79 -46 -101 -111 -25 -72 -22 -112 18 -192 44 -90 75 -73 40 21 -23 63 7
125 55 113 13 -4 84 -73 158 -154 208 -227 324 -348 334 -348 10 0 75 114 76
133 0 15 -433 488 -462 503 -34 18 -41 55 -18 107 38 84 70 99 145 67 45 -18
49 -31 30 -84 -47 -135 21 -305 130 -325 69 -13 118 27 152 124 49 138 -66
348 -241 439 -63 33 -103 38 -151 17z m224 -292 c60 -69 93 -132 89 -174 -4
-47 -35 -52 -85 -14 -44 33 -74 99 -75 164 0 85 13 89 71 24z"/>
<path d="M8765 2482 c-5 -4 -32 -30 -58 -58 l-48 -51 124 -184 c68 -101 126
-189 130 -196 11 -17 -39 -70 -77 -83 -28 -9 -42 -8 -73 5 -80 34 -165 146
-167 220 -1 48 15 72 62 92 38 16 39 22 7 57 -38 41 -76 35 -135 -20 -40 -38
-51 -55 -59 -97 -6 -29 -9 -69 -6 -90 5 -35 3 -38 -15 -33 -11 3 -28 8 -39 11
-43 13 -117 -39 -151 -106 -11 -20 -22 -59 -26 -87 l-6 -51 -27 20 c-83 61
-224 10 -283 -105 -39 -75 -23 -245 30 -338 15 -25 15 -30 1 -43 -14 -14 -17
-9 -33 42 -22 72 -69 146 -109 175 -40 28 -111 29 -158 2 -19 -11 -48 -41 -66
-67 l-31 -47 -7 31 c-6 24 -2 36 17 57 82 91 96 193 33 252 -51 48 -152 20
-212 -58 -26 -35 -28 -43 -27 -127 1 -53 7 -107 16 -130 15 -40 15 -40 -18
-84 -19 -24 -34 -47 -34 -51 0 -4 -24 -5 -53 -2 -65 5 -120 -19 -165 -73 -28
-34 -30 -35 -35 -15 -4 17 9 39 53 92 81 96 90 152 36 215 -22 25 -31 28 -85
28 -52 -1 -65 -5 -98 -31 -21 -17 -49 -46 -62 -65 -22 -32 -23 -40 -18 -149
l5 -115 -42 -48 c-40 -47 -42 -47 -74 -36 -45 16 -139 6 -188 -19 -21 -11 -63
-44 -91 -73 l-53 -54 0 39 0 39 -42 -7 c-76 -11 -118 -18 -119 -20 -1 0 -4
-106 -8 -234 l-6 -234 -33 -29 c-42 -38 -56 -37 -81 7 -19 31 -25 35 -49 29
-81 -20 -94 -127 -20 -163 38 -18 71 -7 128 44 l49 45 3 -33 c3 -30 6 -33 33
-30 47 4 119 24 127 36 4 6 8 96 8 199 0 214 4 231 73 294 51 47 117 71 150
56 27 -13 57 -69 57 -106 0 -18 -8 -28 -32 -38 -86 -35 -168 -151 -168 -237 0
-51 23 -106 54 -127 50 -35 170 -1 232 66 58 62 78 121 82 245 4 110 -3 167
-29 231 -12 29 -11 34 15 68 16 20 32 33 36 28 9 -10 25 -89 45 -229 8 -56 19
-122 24 -145 6 -24 13 -69 16 -101 3 -31 12 -58 18 -61 7 -2 41 8 77 22 48 19
66 32 68 48 3 18 6 20 30 11 37 -14 98 4 145 43 81 67 119 200 97 342 -13 80
-48 179 -69 192 -17 10 -13 30 10 59 32 41 33 39 89 -164 10 -36 29 -103 43
-150 13 -47 28 -98 31 -115 4 -16 14 -40 22 -53 l15 -22 60 32 c45 25 61 40
66 60 4 22 9 26 23 18 11 -6 30 -6 52 1 96 26 155 109 165 231 5 74 23 118 46
118 7 0 26 -14 43 -31 55 -58 124 -75 183 -45 41 22 107 98 122 142 23 67 17
188 -14 273 -14 41 -24 77 -22 81 2 4 0 24 -6 44 -13 46 3 100 35 122 29 18
45 12 72 -29 21 -31 42 -70 211 -397 89 -170 102 -192 112 -188 4 2 31 29 60
61 l52 58 -44 82 c-159 294 -191 363 -151 329 5 -5 27 -14 50 -20 33 -10 51
-9 88 2 l46 14 0 -56 c1 -149 116 -237 247 -189 160 59 297 308 262 477 -14
71 -45 126 -85 150 -36 23 -62 25 -99 8 -33 -15 -32 -32 4 -59 78 -58 120
-164 107 -271 -14 -110 -119 -227 -204 -228 -89 0 -165 114 -146 218 7 38 31
82 44 82 4 0 38 -47 76 -105 38 -57 72 -105 76 -105 10 0 98 116 98 130 0 8
-418 640 -423 640 -1 0 -6 -4 -12 -8z m-1185 -778 c11 -29 -13 -98 -43 -122
-13 -11 -17 -10 -26 7 -15 27 -14 114 1 129 22 22 58 14 68 -14z m519 -19 c59
-68 100 -172 108 -277 6 -83 -9 -128 -44 -128 -23 0 -63 39 -56 56 9 24 -18
74 -44 80 -29 8 -56 59 -73 138 -14 68 -7 119 21 147 28 28 53 24 88 -16z
m-981 -187 c26 -26 7 -92 -37 -132 -12 -11 -24 -16 -27 -13 -13 13 -9 124 5
140 16 20 42 22 59 5z m583 -71 c20 -15 51 -76 74 -147 26 -77 26 -206 2 -242
-33 -49 -87 -49 -105 0 -24 66 -82 285 -82 311 0 37 44 91 73 91 12 0 29 -6
38 -13z m-468 -266 c42 -70 59 -224 36 -317 -16 -64 -68 -100 -107 -75 -17 10
-37 99 -52 237 -15 127 -7 164 39 188 33 18 61 7 84 -33z m-508 -459 c-5 -57
-12 -79 -32 -102 -48 -58 -83 -31 -83 65 0 78 46 160 100 177 19 6 24 -40 15
-140z"/>
<path d="M2000 2296 c-114 -26 -305 -142 -352 -213 -26 -40 -23 -78 8 -102 34
-27 55 -26 82 2 27 29 28 62 2 80 -19 13 -18 16 37 54 107 74 209 113 295 113
62 0 98 -21 98 -58 0 -26 -10 -33 -207 -157 -111 -69 -173 -114 -173 -124 0
-22 81 -101 104 -101 10 0 43 16 74 36 31 20 80 51 107 69 169 108 183 115
238 115 94 0 187 -67 173 -124 -3 -14 -20 -41 -37 -60 l-30 -35 -52 27 c-104
53 -237 40 -305 -31 -49 -51 -55 -77 -29 -129 59 -116 238 -146 391 -66 87 47
198 160 215 219 12 42 11 51 -6 90 -39 87 -135 148 -249 156 -66 5 -72 7 -64
24 20 36 11 86 -23 130 -62 81 -175 114 -297 85z m335 -520 c44 -19 39 -32
-28 -74 -101 -63 -208 -76 -214 -26 -6 45 97 112 175 114 18 0 48 -7 67 -14z"/>
<path d="M2730 1730 c-140 -45 -285 -162 -377 -302 -93 -143 -99 -278 -16
-386 33 -44 141 -113 218 -140 164 -57 347 -22 411 79 29 47 30 82 3 120 -26
37 -35 36 -55 -3 -56 -111 -137 -161 -254 -161 -160 0 -281 96 -267 212 20
167 323 471 469 471 37 0 82 -23 102 -52 16 -22 11 -28 -226 -265 -133 -133
-240 -244 -237 -247 2 -3 36 -21 74 -40 l70 -35 273 272 c149 150 272 274 272
277 0 3 -30 24 -67 47 -62 40 -68 42 -84 27 -17 -15 -19 -13 -34 22 -45 108
-145 146 -275 104z"/>
<path d="M3583 1256 c-90 -42 -185 -147 -229 -251 -8 -21 -16 -69 -17 -106 -2
-54 2 -71 18 -89 29 -32 54 -44 109 -50 l48 -5 -66 -99 c-37 -54 -66 -106 -64
-115 2 -10 27 -22 73 -34 l69 -18 18 23 c16 21 87 124 267 389 83 123 100 140
161 162 58 22 78 21 133 -2 59 -25 73 -67 44 -135 -12 -29 -15 -30 -69 -27
-117 5 -231 -57 -269 -147 -27 -63 -24 -89 14 -127 38 -38 122 -60 184 -49
119 21 228 124 292 274 31 71 34 173 8 214 -48 72 -213 101 -325 57 -29 -12
-54 -21 -56 -21 -2 0 -6 17 -9 38 -9 55 -32 81 -101 113 -80 38 -158 39 -233
5z m149 -93 c29 -26 21 -58 -34 -138 -29 -41 -75 -107 -101 -145 -51 -75 -66
-82 -116 -55 -37 19 -45 53 -25 112 56 169 205 291 276 226z m360 -341 c-3
-31 -87 -137 -128 -163 -49 -30 -78 -23 -82 21 -6 71 106 173 183 167 25 -2
30 -6 27 -25z"/>
<path d="M4488 988 c-14 -24 -40 -74 -60 -113 -43 -83 -124 -239 -183 -350
-133 -252 -162 -311 -158 -322 3 -7 18 -13 34 -13 28 0 33 9 163 273 73 149
146 298 161 330 15 31 31 60 36 63 13 8 11 -79 -5 -191 -17 -111 -43 -332 -52
-441 l-7 -71 33 -6 c18 -4 51 -7 74 -7 l41 0 91 188 c235 483 239 489 242 446
2 -21 -4 -92 -13 -159 -8 -66 -20 -167 -25 -225 -5 -58 -14 -142 -21 -187 -6
-45 -9 -89 -6 -98 5 -12 24 -15 94 -15 182 1 348 97 394 228 22 64 -14 138
-71 144 -22 3 -24 0 -22 -29 2 -17 -5 -60 -14 -95 -15 -51 -28 -73 -69 -114
-44 -44 -118 -85 -131 -72 -7 7 19 278 58 613 7 55 12 122 13 150 l0 50 -73 8
c-51 6 -78 5 -87 -3 -8 -7 -33 -48 -56 -93 -120 -234 -230 -440 -240 -451 -12
-13 -11 54 1 129 5 33 16 132 25 220 8 88 17 176 21 196 6 36 6 36 -39 48 -25
6 -64 11 -85 11 -37 0 -42 -4 -64 -42z"/>
<path d="M5517 693 c-3 -5 -7 -24 -9 -43 l-3 -35 112 -3 112 -3 7 28 c3 15 8
36 11 46 4 15 -6 17 -111 17 -63 0 -117 -3 -119 -7z"/>
</g>
</svg>
